{
	"patcher" : 	{
		"fileversion" : 1,
		"appversion" : 		{
			"major" : 8,
			"minor" : 5,
			"revision" : 1,
			"architecture" : "x64",
			"modernui" : 1
		}
,
		"classnamespace" : "box",
		"rect" : [ 34.0, 78.0, 1212.0, 688.0 ],
		"bglocked" : 0,
		"openinpresentation" : 0,
		"default_fontsize" : 12.0,
		"default_fontface" : 0,
		"default_fontname" : "Arial",
		"gridonopen" : 1,
		"gridsize" : [ 15.0, 15.0 ],
		"gridsnaponopen" : 1,
		"objectsnaponopen" : 1,
		"statusbarvisible" : 2,
		"toolbarvisible" : 1,
		"lefttoolbarpinned" : 0,
		"toptoolbarpinned" : 0,
		"righttoolbarpinned" : 0,
		"bottomtoolbarpinned" : 0,
		"toolbars_unpinned_last_save" : 0,
		"tallnewobj" : 0,
		"boxanimatetime" : 200,
		"enablehscroll" : 1,
		"enablevscroll" : 1,
		"devicewidth" : 0.0,
		"description" : "",
		"digest" : "",
		"tags" : "",
		"style" : "",
		"subpatcher_template" : "",
		"assistshowspatchername" : 0,
		"boxes" : [ 			{
				"box" : 				{
					"color" : [ 0.113725, 0.580392, 0.737255, 1.0 ],
					"fontface" : 0,
					"fontname" : "Arial",
					"fontsize" : 14.0,
					"id" : "obj-132",
					"maxclass" : "newobj",
					"numinlets" : 1,
					"numoutlets" : 4,
					"outlettype" : [ "", "", "", "" ],
					"patching_rect" : [ 561.0, 623.0, 121.0, 24.0 ],
					"saved_object_attributes" : 					{
						"embed" : 0,
						"precision" : 6
					}
,
					"text" : "coll MIDI_SLICES"
				}

			}
, 			{
				"box" : 				{
					"id" : "obj-2",
					"maxclass" : "newobj",
					"numinlets" : 1,
					"numoutlets" : 0,
					"patching_rect" : [ 651.0, 588.0, 32.0, 22.0 ],
					"text" : "print"
				}

			}
, 			{
				"box" : 				{
					"id" : "obj-1",
					"maxclass" : "newobj",
					"numinlets" : 1,
					"numoutlets" : 0,
					"patching_rect" : [ 561.0, 588.0, 73.0, 22.0 ],
					"text" : "print DONE!"
				}

			}
, 			{
				"box" : 				{
					"id" : "obj-26",
					"maxclass" : "newobj",
					"numinlets" : 1,
					"numoutlets" : 1,
					"outlettype" : [ "bang" ],
					"patching_rect" : [ 298.333344000000011, 230.0, 60.0, 22.0 ],
					"text" : "loadbang"
				}

			}
, 			{
				"box" : 				{
					"id" : "obj-131",
					"maxclass" : "newobj",
					"numinlets" : 1,
					"numoutlets" : 1,
					"outlettype" : [ "" ],
					"patching_rect" : [ 424.666655999999989, 532.0, 56.0, 22.0 ],
					"text" : "deferlow"
				}

			}
, 			{
				"box" : 				{
					"fontsize" : 10.0,
					"id" : "obj-24",
					"linecount" : 5,
					"maxclass" : "message",
					"numinlets" : 2,
					"numoutlets" : 1,
					"outlettype" : [ "" ],
					"patching_rect" : [ 298.333344000000011, 264.0, 154.0, 64.0 ],
					"text" : "\"Mac HD:/Users/diogococharro/MEOCloud/PDMD/PROJETOS/RHYTHM-FFT/dataset/CLAVES/0 claves-midi/01.mid\""
				}

			}
, 			{
				"box" : 				{
					"id" : "obj-112",
					"maxclass" : "newobj",
					"numinlets" : 1,
					"numoutlets" : 1,
					"outlettype" : [ "int" ],
					"patcher" : 					{
						"fileversion" : 1,
						"appversion" : 						{
							"major" : 8,
							"minor" : 5,
							"revision" : 1,
							"architecture" : "x64",
							"modernui" : 1
						}
,
						"classnamespace" : "box",
						"rect" : [ 0.0, 0.0, 640.0, 480.0 ],
						"bglocked" : 0,
						"openinpresentation" : 0,
						"default_fontsize" : 12.0,
						"default_fontface" : 0,
						"default_fontname" : "Arial",
						"gridonopen" : 1,
						"gridsize" : [ 15.0, 15.0 ],
						"gridsnaponopen" : 1,
						"objectsnaponopen" : 1,
						"statusbarvisible" : 2,
						"toolbarvisible" : 1,
						"lefttoolbarpinned" : 0,
						"toptoolbarpinned" : 0,
						"righttoolbarpinned" : 0,
						"bottomtoolbarpinned" : 0,
						"toolbars_unpinned_last_save" : 0,
						"tallnewobj" : 0,
						"boxanimatetime" : 200,
						"enablehscroll" : 1,
						"enablevscroll" : 1,
						"devicewidth" : 0.0,
						"description" : "",
						"digest" : "",
						"tags" : "",
						"style" : "",
						"subpatcher_template" : "",
						"assistshowspatchername" : 0,
						"boxes" : [ 							{
								"box" : 								{
									"id" : "obj-25",
									"maxclass" : "newobj",
									"numinlets" : 2,
									"numoutlets" : 1,
									"outlettype" : [ "int" ],
									"patching_rect" : [ 50.0, 134.0, 35.0, 22.0 ],
									"text" : "== 0"
								}

							}
, 							{
								"box" : 								{
									"id" : "obj-24",
									"maxclass" : "message",
									"numinlets" : 2,
									"numoutlets" : 1,
									"outlettype" : [ "" ],
									"patching_rect" : [ 50.0, 161.375, 82.0, 22.0 ],
									"text" : "ignoreclick $1"
								}

							}
, 							{
								"box" : 								{
									"id" : "obj-102",
									"maxclass" : "newobj",
									"numinlets" : 1,
									"numoutlets" : 2,
									"outlettype" : [ "int", "int" ],
									"patching_rect" : [ 50.0, 100.0, 30.0, 22.0 ],
									"text" : "t i 0"
								}

							}
, 							{
								"box" : 								{
									"id" : "obj-11",
									"maxclass" : "newobj",
									"numinlets" : 1,
									"numoutlets" : 1,
									"outlettype" : [ "" ],
									"patching_rect" : [ 150.824218999999999, 161.375, 70.0, 22.0 ],
									"text" : "loadmess 0"
								}

							}
, 							{
								"box" : 								{
									"comment" : "",
									"id" : "obj-84",
									"index" : 1,
									"maxclass" : "inlet",
									"numinlets" : 0,
									"numoutlets" : 1,
									"outlettype" : [ "int" ],
									"patching_rect" : [ 50.0, 40.0, 30.0, 30.0 ]
								}

							}
, 							{
								"box" : 								{
									"comment" : "",
									"id" : "obj-107",
									"index" : 1,
									"maxclass" : "outlet",
									"numinlets" : 1,
									"numoutlets" : 0,
									"patching_rect" : [ 77.608092999999997, 243.375, 30.0, 30.0 ]
								}

							}
 ],
						"lines" : [ 							{
								"patchline" : 								{
									"destination" : [ "obj-107", 0 ],
									"source" : [ "obj-102", 1 ]
								}

							}
, 							{
								"patchline" : 								{
									"destination" : [ "obj-25", 0 ],
									"source" : [ "obj-102", 0 ]
								}

							}
, 							{
								"patchline" : 								{
									"destination" : [ "obj-107", 0 ],
									"source" : [ "obj-11", 0 ]
								}

							}
, 							{
								"patchline" : 								{
									"destination" : [ "obj-107", 0 ],
									"source" : [ "obj-24", 0 ]
								}

							}
, 							{
								"patchline" : 								{
									"destination" : [ "obj-24", 0 ],
									"source" : [ "obj-25", 0 ]
								}

							}
, 							{
								"patchline" : 								{
									"destination" : [ "obj-102", 0 ],
									"source" : [ "obj-84", 0 ]
								}

							}
 ]
					}
,
					"patching_rect" : [ 655.5, 275.0, 83.0, 22.0 ],
					"saved_object_attributes" : 					{
						"description" : "",
						"digest" : "",
						"globalpatchername" : "",
						"tags" : ""
					}
,
					"text" : "p play_button"
				}

			}
, 			{
				"box" : 				{
					"id" : "obj-83",
					"maxclass" : "message",
					"numinlets" : 2,
					"numoutlets" : 1,
					"outlettype" : [ "" ],
					"patching_rect" : [ 509.333344000000011, 230.0, 29.5, 22.0 ],
					"text" : "0"
				}

			}
, 			{
				"box" : 				{
					"id" : "obj-33",
					"maxclass" : "newobj",
					"numinlets" : 1,
					"numoutlets" : 2,
					"outlettype" : [ "", "int" ],
					"patching_rect" : [ 433.333344000000011, 230.0, 76.0, 22.0 ],
					"text" : "t s 1"
				}

			}
, 			{
				"box" : 				{
					"id" : "obj-143",
					"maxclass" : "message",
					"numinlets" : 2,
					"numoutlets" : 1,
					"outlettype" : [ "" ],
					"patching_rect" : [ 370.666655999999989, 476.0, 37.0, 22.0 ],
					"text" : "open"
				}

			}
, 			{
				"box" : 				{
					"id" : "obj-160",
					"maxclass" : "newobj",
					"numinlets" : 1,
					"numoutlets" : 1,
					"outlettype" : [ "" ],
					"patching_rect" : [ 370.666655999999989, 505.0, 53.0, 22.0 ],
					"text" : "pcontrol"
				}

			}
, 			{
				"box" : 				{
					"bubble" : 1,
					"fontface" : 1,
					"fontname" : "Arial",
					"fontsize" : 16.0,
					"id" : "obj-10",
					"maxclass" : "comment",
					"numinlets" : 1,
					"numoutlets" : 0,
					"patching_rect" : [ 755.333312999999976, 496.0, 204.0, 28.0 ],
					"prototypename" : "big title",
					"text" : "I.",
					"textjustification" : 1
				}

			}
, 			{
				"box" : 				{
					"id" : "obj-62",
					"maxclass" : "newobj",
					"numinlets" : 2,
					"numoutlets" : 2,
					"outlettype" : [ "", "" ],
					"patching_rect" : [ 561.0, 538.0, 68.0, 22.0 ],
					"text" : "route done"
				}

			}
, 			{
				"box" : 				{
					"color" : [ 0.941176, 0.690196, 0.196078, 1.0 ],
					"id" : "obj-37",
					"maxclass" : "newobj",
					"numinlets" : 1,
					"numoutlets" : 0,
					"patching_rect" : [ 370.666655999999989, 557.0, 110.0, 22.0 ],
					"text" : "Segmentation_VIZ"
				}

			}
, 			{
				"box" : 				{
					"id" : "obj-7",
					"maxclass" : "button",
					"numinlets" : 1,
					"numoutlets" : 1,
					"outlettype" : [ "bang" ],
					"parameter_enable" : 0,
					"patching_rect" : [ 433.333344000000011, 168.0, 24.0, 24.0 ]
				}

			}
, 			{
				"box" : 				{
					"fontname" : "Arial",
					"fontsize" : 10.0,
					"id" : "obj-8",
					"maxclass" : "comment",
					"numinlets" : 1,
					"numoutlets" : 0,
					"patching_rect" : [ 497.833344000000011, 168.0, 44.0, 18.0 ],
					"text" : "midi file"
				}

			}
, 			{
				"box" : 				{
					"fontname" : "Arial",
					"fontsize" : 12.0,
					"id" : "obj-16",
					"maxclass" : "newobj",
					"numinlets" : 1,
					"numoutlets" : 2,
					"outlettype" : [ "", "bang" ],
					"patching_rect" : [ 433.333344000000011, 194.0, 95.0, 22.0 ],
					"text" : "opendialog Midi"
				}

			}
, 			{
				"box" : 				{
					"fontsize" : 10.0,
					"id" : "obj-20",
					"maxclass" : "message",
					"numinlets" : 2,
					"numoutlets" : 1,
					"outlettype" : [ "" ],
					"patching_rect" : [ 459.333344000000011, 168.0, 31.0, 20.0 ],
					"text" : "open",
					"textjustification" : 1
				}

			}
, 			{
				"box" : 				{
					"bgcolor" : [ 0.0, 0.0, 0.0, 1.0 ],
					"bgoncolor" : [ 0.095481, 0.100396, 0.100293, 1.0 ],
					"fontface" : 1,
					"fontlink" : 1,
					"fontsize" : 18.0,
					"hint" : "Start/Stop playback",
					"id" : "obj-48",
					"legacytextcolor" : 1,
					"maxclass" : "textbutton",
					"mode" : 1,
					"numinlets" : 1,
					"numoutlets" : 3,
					"outlettype" : [ "", "", "int" ],
					"parameter_enable" : 0,
					"patching_rect" : [ 602.592284999999947, 306.0, 33.8154296875, 28.109375 ],
					"text" : "►",
					"textcolor" : [ 0.921569, 0.917647, 0.933333, 1.0 ],
					"texton" : "◼",
					"textoncolor" : [ 0.921569, 0.917647, 0.933333, 1.0 ],
					"usebgoncolor" : 1,
					"usetextovercolor" : 1
				}

			}
, 			{
				"box" : 				{
					"bgcolor" : [ 0.0, 0.0, 0.0, 1.0 ],
					"bgoncolor" : [ 0.095481, 0.100396, 0.100293, 1.0 ],
					"fontlink" : 1,
					"fontsize" : 16.0,
					"hint" : "Start/Stop playback",
					"id" : "obj-72",
					"legacytextcolor" : 1,
					"maxclass" : "textbutton",
					"numinlets" : 1,
					"numoutlets" : 3,
					"outlettype" : [ "", "", "int" ],
					"parameter_enable" : 0,
					"patching_rect" : [ 370.666655999999989, 441.195312000000001, 41.796873092651367, 25.875 ],
					"presentation" : 1,
					"presentation_rect" : [ 297.776001000000008, 9.0, 41.796873092651367, 25.875 ],
					"text" : "seg",
					"textcolor" : [ 0.921569, 0.917647, 0.933333, 1.0 ],
					"texton" : "seg",
					"textoncolor" : [ 0.921569, 0.917647, 0.933333, 1.0 ],
					"usebgoncolor" : 1,
					"usetextovercolor" : 1
				}

			}
, 			{
				"box" : 				{
					"decodemode" : 1,
					"focusbordercolor" : [ 0.803922, 0.898039, 0.909804, 1.0 ],
					"id" : "obj-19",
					"ignoreclick" : 1,
					"legend" : "drag and drop a midi file",
					"maxclass" : "live.drop",
					"numinlets" : 1,
					"numoutlets" : 2,
					"outlettype" : [ "", "" ],
					"parameter_enable" : 1,
					"patching_rect" : [ 561.0, 168.0, 208.0, 48.000003999999997 ],
					"presentation" : 1,
					"presentation_rect" : [ 15.0, 47.0, 380.0, 40.0 ],
					"saved_attribute_attributes" : 					{
						"focusbordercolor" : 						{
							"expression" : ""
						}
,
						"valueof" : 						{
							"parameter_invisible" : 1,
							"parameter_longname" : "DROPFILE",
							"parameter_shortname" : "live.drop",
							"parameter_type" : 4
						}

					}
,
					"varname" : "DROPFILE"
				}

			}
, 			{
				"box" : 				{
					"fontsize" : 10.0,
					"id" : "obj-122",
					"maxclass" : "newobj",
					"numinlets" : 1,
					"numoutlets" : 1,
					"outlettype" : [ "" ],
					"patching_rect" : [ 561.0, 140.5, 80.0, 20.0 ],
					"text" : "prepend legend"
				}

			}
, 			{
				"box" : 				{
					"id" : "obj-73",
					"maxclass" : "newobj",
					"numinlets" : 2,
					"numoutlets" : 3,
					"outlettype" : [ "", "int", "" ],
					"patcher" : 					{
						"fileversion" : 1,
						"appversion" : 						{
							"major" : 8,
							"minor" : 5,
							"revision" : 1,
							"architecture" : "x64",
							"modernui" : 1
						}
,
						"classnamespace" : "box",
						"rect" : [ 38.0, 109.0, 669.0, 471.0 ],
						"bglocked" : 0,
						"openinpresentation" : 0,
						"default_fontsize" : 12.0,
						"default_fontface" : 0,
						"default_fontname" : "Arial",
						"gridonopen" : 1,
						"gridsize" : [ 15.0, 15.0 ],
						"gridsnaponopen" : 1,
						"objectsnaponopen" : 1,
						"statusbarvisible" : 2,
						"toolbarvisible" : 1,
						"lefttoolbarpinned" : 0,
						"toptoolbarpinned" : 0,
						"righttoolbarpinned" : 0,
						"bottomtoolbarpinned" : 0,
						"toolbars_unpinned_last_save" : 0,
						"tallnewobj" : 0,
						"boxanimatetime" : 200,
						"enablehscroll" : 1,
						"enablevscroll" : 1,
						"devicewidth" : 0.0,
						"description" : "",
						"digest" : "",
						"tags" : "",
						"style" : "",
						"subpatcher_template" : "",
						"assistshowspatchername" : 0,
						"boxes" : [ 							{
								"box" : 								{
									"id" : "obj-93",
									"maxclass" : "newobj",
									"numinlets" : 2,
									"numoutlets" : 1,
									"outlettype" : [ "" ],
									"patcher" : 									{
										"fileversion" : 1,
										"appversion" : 										{
											"major" : 8,
											"minor" : 5,
											"revision" : 1,
											"architecture" : "x64",
											"modernui" : 1
										}
,
										"classnamespace" : "box",
										"rect" : [ 142.0, 127.0, 706.0, 484.0 ],
										"bglocked" : 0,
										"openinpresentation" : 0,
										"default_fontsize" : 12.0,
										"default_fontface" : 0,
										"default_fontname" : "Arial",
										"gridonopen" : 1,
										"gridsize" : [ 15.0, 15.0 ],
										"gridsnaponopen" : 1,
										"objectsnaponopen" : 1,
										"statusbarvisible" : 2,
										"toolbarvisible" : 1,
										"lefttoolbarpinned" : 0,
										"toptoolbarpinned" : 0,
										"righttoolbarpinned" : 0,
										"bottomtoolbarpinned" : 0,
										"toolbars_unpinned_last_save" : 0,
										"tallnewobj" : 0,
										"boxanimatetime" : 200,
										"enablehscroll" : 1,
										"enablevscroll" : 1,
										"devicewidth" : 0.0,
										"description" : "",
										"digest" : "",
										"tags" : "",
										"style" : "",
										"subpatcher_template" : "",
										"assistshowspatchername" : 0,
										"boxes" : [ 											{
												"box" : 												{
													"id" : "obj-19",
													"maxclass" : "newobj",
													"numinlets" : 2,
													"numoutlets" : 2,
													"outlettype" : [ "", "" ],
													"patching_rect" : [ 339.074219000000028, 412.0, 40.0, 22.0 ],
													"text" : "zl.reg"
												}

											}
, 											{
												"box" : 												{
													"id" : "obj-17",
													"maxclass" : "newobj",
													"numinlets" : 2,
													"numoutlets" : 1,
													"outlettype" : [ "bang" ],
													"patching_rect" : [ 339.074219000000028, 252.0, 69.0, 22.0 ],
													"text" : "delay 3000"
												}

											}
, 											{
												"box" : 												{
													"id" : "obj-16",
													"maxclass" : "newobj",
													"numinlets" : 1,
													"numoutlets" : 2,
													"outlettype" : [ "bang", "bang" ],
													"patching_rect" : [ 339.074219000000028, 214.0, 100.0, 22.0 ],
													"text" : "b 2"
												}

											}
, 											{
												"box" : 												{
													"id" : "obj-5",
													"linecount" : 3,
													"maxclass" : "comment",
													"numinlets" : 1,
													"numoutlets" : 0,
													"patching_rect" : [ 159.0, 27.0, 125.0, 47.0 ],
													"text" : "// file type code\n0: not recognized file\n1: MIDI"
												}

											}
, 											{
												"box" : 												{
													"id" : "obj-22",
													"maxclass" : "newobj",
													"numinlets" : 1,
													"numoutlets" : 1,
													"outlettype" : [ "" ],
													"patcher" : 													{
														"fileversion" : 1,
														"appversion" : 														{
															"major" : 8,
															"minor" : 5,
															"revision" : 1,
															"architecture" : "x64",
															"modernui" : 1
														}
,
														"classnamespace" : "box",
														"rect" : [ 63.0, 103.0, 640.0, 480.0 ],
														"bglocked" : 0,
														"openinpresentation" : 0,
														"default_fontsize" : 12.0,
														"default_fontface" : 0,
														"default_fontname" : "Arial",
														"gridonopen" : 1,
														"gridsize" : [ 15.0, 15.0 ],
														"gridsnaponopen" : 1,
														"objectsnaponopen" : 1,
														"statusbarvisible" : 2,
														"toolbarvisible" : 1,
														"lefttoolbarpinned" : 0,
														"toptoolbarpinned" : 0,
														"righttoolbarpinned" : 0,
														"bottomtoolbarpinned" : 0,
														"toolbars_unpinned_last_save" : 0,
														"tallnewobj" : 0,
														"boxanimatetime" : 200,
														"enablehscroll" : 1,
														"enablevscroll" : 1,
														"devicewidth" : 0.0,
														"description" : "",
														"digest" : "",
														"tags" : "",
														"style" : "",
														"subpatcher_template" : "",
														"assistshowspatchername" : 0,
														"boxes" : [ 															{
																"box" : 																{
																	"id" : "obj-17",
																	"maxclass" : "newobj",
																	"numinlets" : 5,
																	"numoutlets" : 5,
																	"outlettype" : [ "bang", "bang", "bang", "bang", "" ],
																	"patching_rect" : [ 147.962891000000013, 100.0, 66.0, 22.0 ],
																	"text" : "sel 0 1 2 3"
																}

															}
, 															{
																"box" : 																{
																	"id" : "obj-14",
																	"maxclass" : "message",
																	"numinlets" : 2,
																	"numoutlets" : 1,
																	"outlettype" : [ "" ],
																	"patching_rect" : [ 229.962891000000013, 150.0, 63.0, 22.0 ],
																	"text" : "loading...."
																}

															}
, 															{
																"box" : 																{
																	"id" : "obj-13",
																	"maxclass" : "message",
																	"numinlets" : 2,
																	"numoutlets" : 1,
																	"outlettype" : [ "" ],
																	"patching_rect" : [ 168.962891000000013, 150.0, 59.0, 22.0 ],
																	"text" : "loading..."
																}

															}
, 															{
																"box" : 																{
																	"id" : "obj-12",
																	"maxclass" : "message",
																	"numinlets" : 2,
																	"numoutlets" : 1,
																	"outlettype" : [ "" ],
																	"patching_rect" : [ 108.962890999999999, 150.0, 56.0, 22.0 ],
																	"text" : "loading.."
																}

															}
, 															{
																"box" : 																{
																	"id" : "obj-121",
																	"maxclass" : "message",
																	"numinlets" : 2,
																	"numoutlets" : 1,
																	"outlettype" : [ "" ],
																	"patching_rect" : [ 50.0, 150.0, 53.0, 22.0 ],
																	"text" : "loading."
																}

															}
, 															{
																"box" : 																{
																	"comment" : "",
																	"id" : "obj-20",
																	"index" : 1,
																	"maxclass" : "inlet",
																	"numinlets" : 0,
																	"numoutlets" : 1,
																	"outlettype" : [ "" ],
																	"patching_rect" : [ 147.962891000000013, 40.0, 30.0, 30.0 ]
																}

															}
, 															{
																"box" : 																{
																	"comment" : "",
																	"id" : "obj-21",
																	"index" : 1,
																	"maxclass" : "outlet",
																	"numinlets" : 1,
																	"numoutlets" : 0,
																	"patching_rect" : [ 133.472168000000011, 232.0, 30.0, 30.0 ]
																}

															}
 ],
														"lines" : [ 															{
																"patchline" : 																{
																	"destination" : [ "obj-21", 0 ],
																	"source" : [ "obj-12", 0 ]
																}

															}
, 															{
																"patchline" : 																{
																	"destination" : [ "obj-21", 0 ],
																	"source" : [ "obj-121", 0 ]
																}

															}
, 															{
																"patchline" : 																{
																	"destination" : [ "obj-21", 0 ],
																	"source" : [ "obj-13", 0 ]
																}

															}
, 															{
																"patchline" : 																{
																	"destination" : [ "obj-21", 0 ],
																	"source" : [ "obj-14", 0 ]
																}

															}
, 															{
																"patchline" : 																{
																	"destination" : [ "obj-12", 0 ],
																	"source" : [ "obj-17", 1 ]
																}

															}
, 															{
																"patchline" : 																{
																	"destination" : [ "obj-121", 0 ],
																	"source" : [ "obj-17", 0 ]
																}

															}
, 															{
																"patchline" : 																{
																	"destination" : [ "obj-13", 0 ],
																	"source" : [ "obj-17", 2 ]
																}

															}
, 															{
																"patchline" : 																{
																	"destination" : [ "obj-14", 0 ],
																	"source" : [ "obj-17", 3 ]
																}

															}
, 															{
																"patchline" : 																{
																	"destination" : [ "obj-17", 0 ],
																	"source" : [ "obj-20", 0 ]
																}

															}
 ]
													}
,
													"patching_rect" : [ 120.0, 287.0, 96.0, 22.0 ],
													"saved_object_attributes" : 													{
														"description" : "",
														"digest" : "",
														"globalpatchername" : "",
														"tags" : ""
													}
,
													"text" : "p load-message"
												}

											}
, 											{
												"box" : 												{
													"id" : "obj-7",
													"maxclass" : "newobj",
													"numinlets" : 1,
													"numoutlets" : 1,
													"outlettype" : [ "" ],
													"patching_rect" : [ 120.0, 246.0, 115.0, 22.0 ],
													"text" : "expr ($i1 / 250) % 4"
												}

											}
, 											{
												"box" : 												{
													"id" : "obj-4",
													"maxclass" : "newobj",
													"numinlets" : 2,
													"numoutlets" : 1,
													"outlettype" : [ "float" ],
													"patching_rect" : [ 120.0, 205.0, 72.0, 22.0 ],
													"text" : "clocker 250"
												}

											}
, 											{
												"box" : 												{
													"id" : "obj-3",
													"maxclass" : "comment",
													"numinlets" : 1,
													"numoutlets" : 0,
													"patching_rect" : [ 394.0, 380.0, 150.0, 20.0 ],
													"text" : "// filename"
												}

											}
, 											{
												"box" : 												{
													"id" : "obj-120",
													"maxclass" : "message",
													"numinlets" : 2,
													"numoutlets" : 1,
													"outlettype" : [ "" ],
													"patching_rect" : [ 475.074219000000028, 287.0, 148.0, 22.0 ],
													"text" : "\"drag and drop a midi file\""
												}

											}
, 											{
												"box" : 												{
													"id" : "obj-118",
													"maxclass" : "message",
													"numinlets" : 2,
													"numoutlets" : 1,
													"outlettype" : [ "" ],
													"patching_rect" : [ 339.074219000000028, 287.0, 44.0, 22.0 ],
													"text" : "ready!"
												}

											}
, 											{
												"box" : 												{
													"id" : "obj-1",
													"maxclass" : "newobj",
													"numinlets" : 1,
													"numoutlets" : 1,
													"outlettype" : [ "bang" ],
													"patching_rect" : [ 475.074219000000028, 128.0, 60.0, 22.0 ],
													"text" : "loadbang"
												}

											}
, 											{
												"box" : 												{
													"id" : "obj-64",
													"maxclass" : "newobj",
													"numinlets" : 1,
													"numoutlets" : 2,
													"outlettype" : [ "bang", "bang" ],
													"patching_rect" : [ 386.074219000000028, 117.0, 29.5, 22.0 ],
													"text" : "b 2"
												}

											}
, 											{
												"box" : 												{
													"id" : "obj-126",
													"maxclass" : "newobj",
													"numinlets" : 2,
													"numoutlets" : 2,
													"outlettype" : [ "bang", "" ],
													"patching_rect" : [ 120.0, 95.0, 101.0, 22.0 ],
													"text" : "sel 1"
												}

											}
, 											{
												"box" : 												{
													"id" : "obj-124",
													"maxclass" : "newobj",
													"numinlets" : 2,
													"numoutlets" : 1,
													"outlettype" : [ "int" ],
													"patching_rect" : [ 120.0, 63.0, 29.5, 22.0 ],
													"text" : "> 0"
												}

											}
, 											{
												"box" : 												{
													"id" : "obj-116",
													"maxclass" : "message",
													"numinlets" : 2,
													"numoutlets" : 1,
													"outlettype" : [ "" ],
													"patching_rect" : [ 396.574219000000028, 158.0, 33.0, 22.0 ],
													"text" : "stop"
												}

											}
, 											{
												"box" : 												{
													"comment" : "",
													"id" : "obj-76",
													"index" : 1,
													"maxclass" : "inlet",
													"numinlets" : 0,
													"numoutlets" : 1,
													"outlettype" : [ "" ],
													"patching_rect" : [ 120.0, 23.0, 30.0, 30.0 ]
												}

											}
, 											{
												"box" : 												{
													"comment" : "// filename",
													"id" : "obj-77",
													"index" : 2,
													"maxclass" : "inlet",
													"numinlets" : 0,
													"numoutlets" : 1,
													"outlettype" : [ "" ],
													"patching_rect" : [ 360.074219000000028, 370.0, 30.0, 30.0 ]
												}

											}
, 											{
												"box" : 												{
													"comment" : "",
													"id" : "obj-91",
													"index" : 1,
													"maxclass" : "outlet",
													"numinlets" : 1,
													"numoutlets" : 0,
													"patching_rect" : [ 120.0, 440.0, 30.0, 30.0 ]
												}

											}
 ],
										"lines" : [ 											{
												"patchline" : 												{
													"destination" : [ "obj-120", 0 ],
													"source" : [ "obj-1", 0 ]
												}

											}
, 											{
												"patchline" : 												{
													"destination" : [ "obj-4", 0 ],
													"source" : [ "obj-116", 0 ]
												}

											}
, 											{
												"patchline" : 												{
													"destination" : [ "obj-91", 0 ],
													"source" : [ "obj-118", 0 ]
												}

											}
, 											{
												"patchline" : 												{
													"destination" : [ "obj-91", 0 ],
													"source" : [ "obj-120", 0 ]
												}

											}
, 											{
												"patchline" : 												{
													"destination" : [ "obj-126", 0 ],
													"source" : [ "obj-124", 0 ]
												}

											}
, 											{
												"patchline" : 												{
													"destination" : [ "obj-4", 0 ],
													"source" : [ "obj-126", 0 ]
												}

											}
, 											{
												"patchline" : 												{
													"destination" : [ "obj-64", 0 ],
													"source" : [ "obj-126", 1 ]
												}

											}
, 											{
												"patchline" : 												{
													"destination" : [ "obj-17", 0 ],
													"source" : [ "obj-16", 0 ]
												}

											}
, 											{
												"patchline" : 												{
													"destination" : [ "obj-118", 0 ],
													"source" : [ "obj-17", 0 ]
												}

											}
, 											{
												"patchline" : 												{
													"destination" : [ "obj-91", 0 ],
													"source" : [ "obj-19", 0 ]
												}

											}
, 											{
												"patchline" : 												{
													"destination" : [ "obj-91", 0 ],
													"source" : [ "obj-22", 0 ]
												}

											}
, 											{
												"patchline" : 												{
													"destination" : [ "obj-7", 0 ],
													"source" : [ "obj-4", 0 ]
												}

											}
, 											{
												"patchline" : 												{
													"destination" : [ "obj-116", 0 ],
													"source" : [ "obj-64", 1 ]
												}

											}
, 											{
												"patchline" : 												{
													"destination" : [ "obj-16", 0 ],
													"midpoints" : [ 395.574219000000028, 147.0, 348.574219000000028, 147.0 ],
													"source" : [ "obj-64", 0 ]
												}

											}
, 											{
												"patchline" : 												{
													"destination" : [ "obj-22", 0 ],
													"source" : [ "obj-7", 0 ]
												}

											}
, 											{
												"patchline" : 												{
													"destination" : [ "obj-124", 0 ],
													"source" : [ "obj-76", 0 ]
												}

											}
, 											{
												"patchline" : 												{
													"destination" : [ "obj-19", 1 ],
													"source" : [ "obj-77", 0 ]
												}

											}
 ]
									}
,
									"patching_rect" : [ 478.5, 340.0, 75.0, 22.0 ],
									"saved_object_attributes" : 									{
										"description" : "",
										"digest" : "",
										"globalpatchername" : "",
										"tags" : ""
									}
,
									"text" : "p LOADING"
								}

							}
, 							{
								"box" : 								{
									"id" : "obj-9",
									"maxclass" : "newobj",
									"numinlets" : 2,
									"numoutlets" : 1,
									"outlettype" : [ "int" ],
									"patching_rect" : [ 250.0, 302.0, 29.5, 22.0 ],
									"text" : "i"
								}

							}
, 							{
								"box" : 								{
									"id" : "obj-12",
									"maxclass" : "comment",
									"numinlets" : 1,
									"numoutlets" : 0,
									"patching_rect" : [ 472.5, 410.0, 79.0, 20.0 ],
									"text" : "// to live.drop"
								}

							}
, 							{
								"box" : 								{
									"comment" : "// to live.drop",
									"id" : "obj-11",
									"index" : 3,
									"maxclass" : "outlet",
									"numinlets" : 1,
									"numoutlets" : 0,
									"patching_rect" : [ 478.5, 378.0, 30.0, 30.0 ]
								}

							}
, 							{
								"box" : 								{
									"id" : "obj-2",
									"maxclass" : "newobj",
									"numinlets" : 1,
									"numoutlets" : 2,
									"outlettype" : [ "", "int" ],
									"patching_rect" : [ 534.5, 310.0, 57.0, 22.0 ],
									"text" : "strippath"
								}

							}
, 							{
								"box" : 								{
									"id" : "obj-18",
									"maxclass" : "comment",
									"numinlets" : 1,
									"numoutlets" : 0,
									"patching_rect" : [ 418.0, 102.0, 154.0, 20.0 ],
									"text" : "// sel Midi Mp3 AIFF WAVE"
								}

							}
, 							{
								"box" : 								{
									"id" : "obj-14",
									"linecount" : 4,
									"maxclass" : "comment",
									"numinlets" : 1,
									"numoutlets" : 0,
									"patching_rect" : [ 282.0, 340.0, 111.0, 60.0 ],
									"text" : "// to TRANSPORT\n\n1-midi\n0-not recognized"
								}

							}
, 							{
								"box" : 								{
									"comment" : "",
									"id" : "obj-7",
									"index" : 2,
									"maxclass" : "outlet",
									"numinlets" : 1,
									"numoutlets" : 0,
									"patching_rect" : [ 250.0, 340.0, 30.0, 30.0 ]
								}

							}
, 							{
								"box" : 								{
									"id" : "obj-8",
									"maxclass" : "comment",
									"numinlets" : 1,
									"numoutlets" : 0,
									"patching_rect" : [ 50.0, 302.0, 63.0, 20.0 ],
									"text" : "// file path"
								}

							}
, 							{
								"box" : 								{
									"id" : "obj-6",
									"maxclass" : "comment",
									"numinlets" : 1,
									"numoutlets" : 0,
									"patching_rect" : [ 287.0, 38.0, 150.0, 20.0 ],
									"text" : "// audiofile type"
								}

							}
, 							{
								"box" : 								{
									"id" : "obj-5",
									"maxclass" : "comment",
									"numinlets" : 1,
									"numoutlets" : 0,
									"patching_rect" : [ 82.0, 38.0, 63.0, 20.0 ],
									"text" : "// file path"
								}

							}
, 							{
								"box" : 								{
									"id" : "obj-63",
									"maxclass" : "newobj",
									"numinlets" : 1,
									"numoutlets" : 1,
									"outlettype" : [ "" ],
									"patching_rect" : [ 50.0, 120.0, 59.0, 22.0 ],
									"text" : "tosymbol"
								}

							}
, 							{
								"box" : 								{
									"id" : "obj-64",
									"maxclass" : "newobj",
									"numinlets" : 1,
									"numoutlets" : 2,
									"outlettype" : [ "", "int" ],
									"patching_rect" : [ 50.0, 89.0, 130.0, 22.0 ],
									"text" : "conformpath max boot"
								}

							}
, 							{
								"box" : 								{
									"id" : "obj-30",
									"maxclass" : "message",
									"numinlets" : 2,
									"numoutlets" : 1,
									"outlettype" : [ "" ],
									"patching_rect" : [ 375.0, 124.0, 29.5, 22.0 ],
									"text" : "0"
								}

							}
, 							{
								"box" : 								{
									"id" : "obj-4",
									"maxclass" : "message",
									"numinlets" : 2,
									"numoutlets" : 1,
									"outlettype" : [ "" ],
									"patching_rect" : [ 250.0, 124.0, 29.5, 22.0 ],
									"text" : "1"
								}

							}
, 							{
								"box" : 								{
									"id" : "obj-1",
									"maxclass" : "newobj",
									"numinlets" : 2,
									"numoutlets" : 1,
									"outlettype" : [ "" ],
									"patching_rect" : [ 50.0, 196.0, 93.0, 22.0 ],
									"text" : "gate 1"
								}

							}
, 							{
								"box" : 								{
									"id" : "obj-3",
									"maxclass" : "newobj",
									"numinlets" : 2,
									"numoutlets" : 2,
									"outlettype" : [ "bang", "" ],
									"patching_rect" : [ 250.0, 89.0, 144.0, 22.0 ],
									"text" : "sel Midi"
								}

							}
, 							{
								"box" : 								{
									"comment" : "// audiofile type",
									"id" : "obj-66",
									"index" : 2,
									"maxclass" : "inlet",
									"numinlets" : 0,
									"numoutlets" : 1,
									"outlettype" : [ "" ],
									"patching_rect" : [ 250.0, 38.0, 30.0, 30.0 ]
								}

							}
, 							{
								"box" : 								{
									"comment" : "// audiofile path",
									"id" : "obj-67",
									"index" : 1,
									"maxclass" : "inlet",
									"numinlets" : 0,
									"numoutlets" : 1,
									"outlettype" : [ "" ],
									"patching_rect" : [ 50.0, 38.0, 30.0, 30.0 ]
								}

							}
, 							{
								"box" : 								{
									"comment" : "// file path",
									"id" : "obj-68",
									"index" : 1,
									"maxclass" : "outlet",
									"numinlets" : 1,
									"numoutlets" : 0,
									"patching_rect" : [ 50.0, 270.0, 30.0, 30.0 ]
								}

							}
 ],
						"lines" : [ 							{
								"patchline" : 								{
									"destination" : [ "obj-2", 0 ],
									"order" : 0,
									"source" : [ "obj-1", 0 ]
								}

							}
, 							{
								"patchline" : 								{
									"destination" : [ "obj-68", 0 ],
									"order" : 1,
									"source" : [ "obj-1", 0 ]
								}

							}
, 							{
								"patchline" : 								{
									"destination" : [ "obj-93", 1 ],
									"source" : [ "obj-2", 0 ]
								}

							}
, 							{
								"patchline" : 								{
									"destination" : [ "obj-30", 0 ],
									"source" : [ "obj-3", 1 ]
								}

							}
, 							{
								"patchline" : 								{
									"destination" : [ "obj-4", 0 ],
									"source" : [ "obj-3", 0 ]
								}

							}
, 							{
								"patchline" : 								{
									"destination" : [ "obj-1", 0 ],
									"order" : 1,
									"source" : [ "obj-30", 0 ]
								}

							}
, 							{
								"patchline" : 								{
									"destination" : [ "obj-9", 0 ],
									"order" : 0,
									"source" : [ "obj-30", 0 ]
								}

							}
, 							{
								"patchline" : 								{
									"destination" : [ "obj-1", 0 ],
									"order" : 1,
									"source" : [ "obj-4", 0 ]
								}

							}
, 							{
								"patchline" : 								{
									"destination" : [ "obj-9", 0 ],
									"order" : 0,
									"source" : [ "obj-4", 0 ]
								}

							}
, 							{
								"patchline" : 								{
									"destination" : [ "obj-1", 1 ],
									"source" : [ "obj-63", 0 ]
								}

							}
, 							{
								"patchline" : 								{
									"destination" : [ "obj-63", 0 ],
									"source" : [ "obj-64", 0 ]
								}

							}
, 							{
								"patchline" : 								{
									"destination" : [ "obj-3", 0 ],
									"source" : [ "obj-66", 0 ]
								}

							}
, 							{
								"patchline" : 								{
									"destination" : [ "obj-64", 0 ],
									"source" : [ "obj-67", 0 ]
								}

							}
, 							{
								"patchline" : 								{
									"destination" : [ "obj-7", 0 ],
									"source" : [ "obj-9", 0 ]
								}

							}
, 							{
								"patchline" : 								{
									"destination" : [ "obj-11", 0 ],
									"source" : [ "obj-93", 0 ]
								}

							}
 ],
						"styles" : [ 							{
								"name" : "AudioStatus_Menu",
								"default" : 								{
									"bgfillcolor" : 									{
										"angle" : 270.0,
										"autogradient" : 0,
										"color" : [ 0.294118, 0.313726, 0.337255, 1 ],
										"color1" : [ 0.454902, 0.462745, 0.482353, 0.0 ],
										"color2" : [ 0.290196, 0.309804, 0.301961, 1.0 ],
										"proportion" : 0.39,
										"type" : "color"
									}

								}
,
								"parentstyle" : "",
								"multi" : 0
							}
, 							{
								"name" : "DC_01",
								"default" : 								{
									"fontsize" : [ 10.0 ]
								}
,
								"parentstyle" : "",
								"multi" : 0
							}
 ]
					}
,
					"patching_rect" : [ 561.0, 230.0, 208.0, 22.0 ],
					"saved_object_attributes" : 					{
						"description" : "",
						"digest" : "",
						"globalpatchername" : "",
						"tags" : ""
					}
,
					"text" : "p \"FILE TYPE\""
				}

			}
, 			{
				"box" : 				{
					"id" : "obj-13",
					"maxclass" : "newobj",
					"numinlets" : 1,
					"numoutlets" : 2,
					"outlettype" : [ "", "int" ],
					"patching_rect" : [ 81.833374000000006, 89.5, 130.0, 22.0 ],
					"text" : "conformpath max boot"
				}

			}
, 			{
				"box" : 				{
					"color" : [ 0.317647, 0.654902, 0.976471, 1.0 ],
					"id" : "obj-65",
					"maxclass" : "newobj",
					"numinlets" : 1,
					"numoutlets" : 0,
					"patching_rect" : [ 81.833374000000006, 129.5, 61.0, 22.0 ],
					"text" : "s #0-path"
				}

			}
, 			{
				"box" : 				{
					"fontsize" : 10.0,
					"id" : "obj-60",
					"linecount" : 3,
					"maxclass" : "message",
					"numinlets" : 2,
					"numoutlets" : 1,
					"outlettype" : [ "" ],
					"patching_rect" : [ 81.833374000000006, 153.5, 215.499968999999993, 42.0 ],
					"text" : "\"/Users/diogococharro/MEOCloud/PDMD/PROJETOS/Rhythmic Dissonance/DEVELOP/Midi Segmentation Patch/\""
				}

			}
, 			{
				"box" : 				{
					"id" : "obj-58",
					"maxclass" : "newobj",
					"numinlets" : 1,
					"numoutlets" : 1,
					"outlettype" : [ "" ],
					"patching_rect" : [ 31.833373999999999, 31.5, 89.0, 22.0 ],
					"text" : "loadmess path"
				}

			}
, 			{
				"box" : 				{
					"id" : "obj-57",
					"maxclass" : "newobj",
					"numinlets" : 1,
					"numoutlets" : 2,
					"outlettype" : [ "", "" ],
					"patching_rect" : [ 31.833373999999999, 62.5, 69.0, 22.0 ],
					"save" : [ "#N", "thispatcher", ";", "#Q", "end", ";" ],
					"text" : "thispatcher"
				}

			}
, 			{
				"box" : 				{
					"bgcolor" : [ 0.0, 0.0, 0.0, 1.0 ],
					"bgoncolor" : [ 0.0, 0.0, 0.0, 1.0 ],
					"fontface" : 1,
					"fontlink" : 1,
					"fontsize" : 16.0,
					"hint" : "Start/Stop playback",
					"id" : "obj-12",
					"legacytextcolor" : 1,
					"maxclass" : "textbutton",
					"mode" : 1,
					"numinlets" : 1,
					"numoutlets" : 3,
					"outlettype" : [ "", "", "int" ],
					"parameter_enable" : 0,
					"patching_rect" : [ 655.5, 306.0, 51.546875, 25.875 ],
					"presentation" : 1,
					"presentation_rect" : [ 343.453125, 111.0, 51.546875, 25.875 ],
					"text" : "Play",
					"textcolor" : [ 0.921569, 0.917647, 0.933333, 1.0 ],
					"texton" : "Stop",
					"textoncolor" : [ 0.921569, 0.917647, 0.933333, 1.0 ],
					"usebgoncolor" : 1,
					"usetextovercolor" : 1,
					"varname" : "play"
				}

			}
, 			{
				"box" : 				{
					"id" : "obj-4",
					"maxclass" : "comment",
					"numinlets" : 1,
					"numoutlets" : 0,
					"patching_rect" : [ 573.0, 341.0, 150.0, 20.0 ],
					"text" : "// midi file path"
				}

			}
, 			{
				"box" : 				{
					"color" : [ 0.941176, 0.690196, 0.196078, 1.0 ],
					"fontsize" : 16.0,
					"id" : "obj-46",
					"maxclass" : "newobj",
					"numinlets" : 1,
					"numoutlets" : 1,
					"outlettype" : [ "" ],
					"patching_rect" : [ 561.0, 505.0, 135.0, 26.0 ],
					"text" : "MIDIFileSegment"
				}

			}
 ],
		"lines" : [ 			{
				"patchline" : 				{
					"destination" : [ "obj-12", 0 ],
					"source" : [ "obj-112", 0 ]
				}

			}
, 			{
				"patchline" : 				{
					"destination" : [ "obj-19", 0 ],
					"source" : [ "obj-122", 0 ]
				}

			}
, 			{
				"patchline" : 				{
					"destination" : [ "obj-60", 1 ],
					"order" : 0,
					"source" : [ "obj-13", 0 ]
				}

			}
, 			{
				"patchline" : 				{
					"destination" : [ "obj-65", 0 ],
					"order" : 1,
					"source" : [ "obj-13", 0 ]
				}

			}
, 			{
				"patchline" : 				{
					"destination" : [ "obj-37", 0 ],
					"source" : [ "obj-131", 0 ]
				}

			}
, 			{
				"patchline" : 				{
					"destination" : [ "obj-160", 0 ],
					"source" : [ "obj-143", 0 ]
				}

			}
, 			{
				"patchline" : 				{
					"destination" : [ "obj-33", 0 ],
					"source" : [ "obj-16", 0 ]
				}

			}
, 			{
				"patchline" : 				{
					"destination" : [ "obj-83", 0 ],
					"source" : [ "obj-16", 1 ]
				}

			}
, 			{
				"patchline" : 				{
					"destination" : [ "obj-37", 0 ],
					"source" : [ "obj-160", 0 ]
				}

			}
, 			{
				"patchline" : 				{
					"destination" : [ "obj-73", 1 ],
					"source" : [ "obj-19", 1 ]
				}

			}
, 			{
				"patchline" : 				{
					"destination" : [ "obj-73", 0 ],
					"source" : [ "obj-19", 0 ]
				}

			}
, 			{
				"patchline" : 				{
					"destination" : [ "obj-7", 0 ],
					"source" : [ "obj-20", 0 ]
				}

			}
, 			{
				"patchline" : 				{
					"destination" : [ "obj-46", 0 ],
					"source" : [ "obj-24", 0 ]
				}

			}
, 			{
				"patchline" : 				{
					"destination" : [ "obj-24", 0 ],
					"source" : [ "obj-26", 0 ]
				}

			}
, 			{
				"patchline" : 				{
					"destination" : [ "obj-24", 1 ],
					"source" : [ "obj-33", 0 ]
				}

			}
, 			{
				"patchline" : 				{
					"destination" : [ "obj-131", 0 ],
					"order" : 1,
					"source" : [ "obj-46", 0 ]
				}

			}
, 			{
				"patchline" : 				{
					"destination" : [ "obj-62", 0 ],
					"order" : 0,
					"source" : [ "obj-46", 0 ]
				}

			}
, 			{
				"patchline" : 				{
					"destination" : [ "obj-13", 0 ],
					"source" : [ "obj-57", 1 ]
				}

			}
, 			{
				"patchline" : 				{
					"destination" : [ "obj-57", 0 ],
					"source" : [ "obj-58", 0 ]
				}

			}
, 			{
				"patchline" : 				{
					"destination" : [ "obj-1", 0 ],
					"source" : [ "obj-62", 0 ]
				}

			}
, 			{
				"patchline" : 				{
					"destination" : [ "obj-2", 0 ],
					"source" : [ "obj-62", 1 ]
				}

			}
, 			{
				"patchline" : 				{
					"destination" : [ "obj-16", 0 ],
					"source" : [ "obj-7", 0 ]
				}

			}
, 			{
				"patchline" : 				{
					"destination" : [ "obj-143", 0 ],
					"source" : [ "obj-72", 0 ]
				}

			}
, 			{
				"patchline" : 				{
					"destination" : [ "obj-112", 0 ],
					"source" : [ "obj-73", 1 ]
				}

			}
, 			{
				"patchline" : 				{
					"destination" : [ "obj-122", 0 ],
					"midpoints" : [ 759.5, 261.0, 787.5, 261.0, 787.5, 133.50000799999998, 570.5, 133.50000799999998 ],
					"source" : [ "obj-73", 2 ]
				}

			}
, 			{
				"patchline" : 				{
					"destination" : [ "obj-46", 0 ],
					"source" : [ "obj-73", 0 ]
				}

			}
 ],
		"parameters" : 		{
			"obj-19" : [ "DROPFILE", "live.drop", 0 ],
			"parameterbanks" : 			{
				"0" : 				{
					"index" : 0,
					"name" : "",
					"parameters" : [ "-", "-", "-", "-", "-", "-", "-", "-" ]
				}

			}
,
			"inherited_shortname" : 1
		}
,
		"dependency_cache" : [ 			{
				"name" : "MIDIFileSegment.maxpat",
				"bootpath" : "~/MEOCloud/PDMD/PROJETOS/Rhythmic Dissonance/DEVELOP/Midi Segmentation Patch",
				"patcherrelativepath" : ".",
				"type" : "JSON",
				"implicit" : 1
			}
, 			{
				"name" : "Segmentation_VIZ.maxpat",
				"bootpath" : "~/MEOCloud/PDMD/PROJETOS/Rhythmic Dissonance/DEVELOP/Midi Segmentation Patch",
				"patcherrelativepath" : ".",
				"type" : "JSON",
				"implicit" : 1
			}
, 			{
				"name" : "mxj.mxo",
				"type" : "iLaX"
			}
 ],
		"autosave" : 0
	}

}
